<svg width="102" height="88" viewBox="0 0 102 88" fill="none" xmlns="http://www.w3.org/2000/svg">
<path d="M51.683 0.145827L65.8955 6.63351C66.2523 6.79554 66.2523 7.30108 65.8955 7.46959L51.683 13.9508C51.2549 14.1452 50.7619 14.1452 50.3338 13.9508L36.1214 7.46959C35.7646 7.30756 35.7646 6.80202 36.1214 6.63351L50.3338 0.145827C50.7555 -0.048609 51.2484 -0.048609 51.683 0.145827Z" fill="white"/>
<path d="M51.0804 21.6241C57.3336 21.6241 62.043 19.4983 62.043 16.6789V9.30981L52.0339 13.8791C51.7096 14.0281 51.3593 14.1059 51.0025 14.1059C50.6458 14.1059 50.2955 14.0281 49.9711 13.8791L40.1178 9.38111V16.6789C40.1178 19.4983 44.8272 21.6241 51.0804 21.6241Z" fill="white"/>
<path d="M49.6393 14.6052C50.0675 14.7996 50.528 14.9033 51.0016 14.9033C51.4751 14.9033 51.9357 14.8061 52.3638 14.6052L61.2441 10.5544V16.6857C61.2441 18.9735 56.6904 20.8336 51.0794 20.8336C45.4684 20.8336 40.9147 18.98 40.9147 16.6857V10.6257L49.6393 14.6052Z" fill="white"/>
<path d="M80.4933 11.5542C82.5939 13.327 83.0684 16.2159 83.0684 16.2159C83.0684 16.2159 80.1375 16.2307 78.0369 14.453C75.9364 12.6801 75.4619 9.79126 75.4619 9.79126C75.4619 9.79126 78.3928 9.78139 80.4933 11.5542Z" fill="white"/>
<path d="M68.7802 80.2746C67.1146 82.5808 67.1096 85.2326 67.1343 85.2376C67.1294 85.2721 70.767 84.1067 72.319 81.5734C73.8758 79.0697 72.9763 76.571 73.001 76.5808C72.9961 76.6055 70.4408 77.9882 68.7802 80.2746Z" fill="white"/>
<path d="M71.6425 87.9388C68.3953 87.5141 67.1004 85.119 67.1053 85.1437C67.1449 85.1536 70.5601 84.0277 73.5552 84.2647C76.5751 84.5166 78.4136 86.319 78.4136 86.3388C78.4581 86.3437 74.9243 88.3733 71.6425 87.9388Z" fill="white"/>
<path d="M75.0465 77.2378C73.9394 79.7414 74.4682 82.2945 74.488 82.2945C74.488 82.3291 77.6561 80.6056 78.6446 77.8995C79.638 75.223 78.3085 72.9563 78.3332 72.9563C78.3283 72.981 76.1586 74.7538 75.0465 77.2378Z" fill="white"/>
<path d="M79.2531 84.1511C76.1195 84.2795 74.444 82.1857 74.444 82.2054C74.4786 82.2104 77.4491 80.561 80.3355 80.2845C83.2466 80.0228 85.352 81.4499 85.352 81.4697C85.3965 81.4746 82.4212 84.0277 79.2531 84.1511Z" fill="white"/>
<path d="M80.4104 73.2423C79.8272 75.8497 80.8256 78.225 80.8454 78.225C80.8503 78.2596 83.5341 76.0571 83.9838 73.267C84.4385 70.5016 82.7482 68.5362 82.768 68.5312C82.768 68.5609 80.9986 70.6547 80.4104 73.2423Z" fill="white"/>
<path d="M85.7424 79.2177C82.772 79.8696 80.7801 78.1313 80.7851 78.1511C80.8197 78.1511 83.3304 76.0523 86.0537 75.2968C88.8067 74.5462 91.1049 75.5634 91.1099 75.5832C91.1494 75.5783 88.7474 78.561 85.7424 79.2177Z" fill="white"/>
<path d="M84.8312 68.4529C84.7373 71.085 86.1459 73.2133 86.1607 73.2133C86.1656 73.2479 88.3551 70.6553 88.3008 67.8603C88.2513 65.0949 86.2645 63.4752 86.2842 63.4702C86.2842 63.4949 84.93 65.8406 84.8312 68.4529Z" fill="white"/>
<path d="M91.0743 73.3263C88.3164 74.472 86.0824 73.1288 86.0923 73.1485C86.1219 73.1436 88.1582 70.6794 90.6739 69.4646C93.2144 68.2547 95.6362 68.8473 95.6411 68.8621C95.6757 68.8523 93.8618 72.1757 91.0743 73.3263Z" fill="white"/>
<path d="M88.2763 63.0255C88.647 65.6082 90.3868 67.4304 90.4065 67.4254C90.4164 67.4551 92.0919 64.5514 91.5581 61.8354C91.0392 59.144 88.82 57.9095 88.8348 57.9045C88.8497 57.9292 87.9205 60.4625 88.2763 63.0255Z" fill="white"/>
<path d="M95.2117 66.6798C92.7256 68.2798 90.3187 67.3564 90.3285 67.3761C90.3533 67.3662 91.9052 64.6156 94.154 62.986C96.4275 61.3564 98.8938 61.5045 98.9086 61.5243C98.9383 61.5045 97.7274 65.0699 95.2117 66.6798Z" fill="white"/>
<path d="M90.7194 57.1192C91.5152 59.5785 93.5317 61.0501 93.5465 61.0402C93.5613 61.0698 94.708 57.939 93.7343 55.3711C92.7755 52.8279 90.3982 52.0082 90.413 51.9983C90.4229 52.023 89.9385 54.6748 90.7194 57.1192Z" fill="white"/>
<path d="M98.1181 59.4603C95.9533 61.4652 93.4475 60.9912 93.4573 61.006C93.4821 60.9912 94.5298 58.0282 96.4623 56.0332C98.4146 54.0332 100.856 53.7369 100.871 53.7517C100.901 53.732 100.308 57.4455 98.1181 59.4603Z" fill="white"/>
<path d="M92.1229 50.892C93.3141 53.1685 95.5332 54.25 95.5481 54.2352C95.5678 54.2598 96.1659 50.9809 94.782 48.6303C93.4179 46.2945 90.9516 45.9142 90.9664 45.8994C90.9812 45.9192 90.9466 48.6303 92.1229 50.892Z" fill="white"/>
<path d="M99.7537 51.8705C97.9695 54.2261 95.434 54.2063 95.4488 54.2211C95.4686 54.2014 96.0024 51.11 97.5593 48.799C99.1409 46.478 101.479 45.7471 101.493 45.7619C101.518 45.7323 101.563 49.5002 99.7537 51.8705Z" fill="white"/>
<path d="M92.4475 44.5024C93.9945 46.5369 96.3471 47.2036 96.3619 47.1888C96.3867 47.2135 96.4213 43.8703 94.6667 41.7863C92.9319 39.7172 90.4508 39.7765 90.4656 39.7666C90.4854 39.7814 90.9203 42.4777 92.4475 44.5024Z" fill="white"/>
<path d="M100.085 44.0974C98.7358 46.7443 96.2497 47.174 96.2695 47.1838C96.2843 47.1641 96.2893 44.0184 97.4211 41.4505C98.5677 38.8678 100.728 37.7271 100.742 37.737C100.762 37.7074 101.459 41.4308 100.085 44.0974Z" fill="white"/>
<path d="M91.6736 38.1069C93.5419 39.8501 95.9587 40.0871 95.9686 40.0723C95.9982 40.092 95.4546 36.7735 93.3639 35.0106C91.298 33.2625 88.8762 33.7612 88.8861 33.7415C88.9058 33.7612 89.8251 36.3735 91.6736 38.1069Z" fill="white"/>
<path d="M99.0718 36.3443C98.2167 39.2134 95.8542 40.0825 95.874 40.0924C95.8888 40.0677 95.3501 36.9517 95.9926 34.1912C96.65 31.4159 98.5528 29.89 98.5726 29.895C98.5874 29.8653 99.9515 33.4505 99.0718 36.3443Z" fill="white"/>
<path d="M89.7617 31.875C91.9166 33.2874 94.3186 33.0898 94.3285 33.075C94.3582 33.0898 93.2264 29.88 90.8293 28.4775C88.4618 27.0899 86.1784 28.0133 86.1834 27.9936C86.213 28.0084 87.6315 30.4726 89.7617 31.875Z" fill="white"/>
<path d="M96.6796 28.7985C96.3731 31.8108 94.2182 33.0997 94.238 33.1046C94.2479 33.0799 93.1556 30.0676 93.2545 27.1886C93.3681 24.2948 94.925 22.4282 94.9497 22.4282C94.9596 22.3985 97.0008 25.7565 96.6796 28.7985Z" fill="white"/>
<path d="M86.6759 25.9635C89.0779 27.0054 91.3959 26.3832 91.4009 26.3684C91.4355 26.3783 89.6957 23.3561 87.0317 22.3635C84.4073 21.3759 82.3315 22.6944 82.3364 22.6746C82.371 22.6795 84.2986 24.9264 86.6759 25.9635Z" fill="white"/>
<path d="M92.8636 21.6628C93.1651 24.7443 91.2919 26.4134 91.3166 26.4134C91.3216 26.3887 89.6609 23.5591 89.1568 20.6406C88.6625 17.7024 89.7993 15.5493 89.824 15.5542C89.8388 15.5197 92.577 18.5567 92.8636 21.6628Z" fill="white"/>
<path d="M82.3862 20.5371C85.0008 21.1791 87.1557 20.1519 87.1606 20.1322C87.2002 20.1371 84.8327 17.3865 81.9464 16.8285C79.0946 16.2705 77.3103 17.9495 77.3153 17.9297C77.3499 17.9347 79.8013 19.8902 82.3862 20.5371Z" fill="white"/>
<path d="M87.595 15.1346C88.5686 18.1963 87.0612 20.1963 87.0859 20.1963C87.0859 20.1716 84.842 17.6037 83.6756 14.7296C82.5191 11.8408 83.1517 9.46054 83.1764 9.46054C83.1863 9.42598 86.6361 12.0482 87.595 15.1346Z" fill="white"/>
<path d="M56.8242 86.4375L56.8539 85.8696C61.569 86.1165 66.2347 85.4202 70.7224 83.7906C75.0916 82.2054 79.1048 79.8104 82.6436 76.6746C89.9931 70.166 94.5451 61.0995 95.4742 51.144C96.2304 42.991 95.4149 35.7861 93.0475 29.7219C90.5071 23.2084 86.2269 18.2011 80.3306 14.8332L80.6123 14.3394C86.6272 17.7714 90.9865 22.8825 93.5763 29.5145C95.9784 35.6626 96.8038 42.9564 96.0377 51.1983C95.0986 61.297 90.4774 70.4969 83.0193 77.1043C79.4261 80.2894 75.3535 82.719 70.9152 84.3289C66.3582 85.9832 61.6184 86.6894 56.8242 86.4375Z" fill="white"/>
<path d="M21.5135 11.5542C19.413 13.327 18.9385 16.2159 18.9385 16.2159C18.9385 16.2159 21.8694 16.2307 23.9699 14.453C26.0705 12.6801 26.5449 9.79126 26.5449 9.79126C26.5449 9.79126 23.6141 9.78139 21.5135 11.5542Z" fill="white"/>
<path d="M33.2282 80.2746C34.8938 82.5808 34.8987 85.2326 34.874 85.2376C34.8789 85.2721 31.2413 84.1067 29.6894 81.5734C28.1325 79.0697 29.032 76.571 29.0073 76.5808C29.0122 76.6055 31.5675 77.9882 33.2282 80.2746Z" fill="white"/>
<path d="M30.3612 87.9388C33.6084 87.5141 34.9034 85.119 34.8984 85.1437C34.8589 85.1536 31.4436 84.0277 28.4485 84.2647C25.4287 84.5166 23.5901 86.319 23.5901 86.3388C23.5505 86.3437 27.0795 88.3733 30.3612 87.9388Z" fill="white"/>
<path d="M26.9554 77.2378C28.0625 79.7414 27.5386 82.2945 27.5139 82.2945C27.5139 82.3291 24.3458 80.6056 23.3573 77.8995C22.3639 75.223 23.6934 72.9563 23.6687 72.9563C23.6786 72.981 25.8483 74.7538 26.9554 77.2378Z" fill="white"/>
<path d="M22.7545 84.1511C25.888 84.2795 27.5635 82.1857 27.5635 82.2054C27.5289 82.2104 24.5585 80.561 21.6721 80.2845C18.761 80.0228 16.6555 81.4499 16.6555 81.4697C16.611 81.4746 19.5864 84.0277 22.7545 84.1511Z" fill="white"/>
<path d="M21.5918 73.2423C22.175 75.8497 21.1766 78.225 21.1568 78.225C21.1568 78.2596 18.4682 76.0571 18.0184 73.267C17.5637 70.5016 19.254 68.5362 19.2342 68.5312C19.2342 68.5609 21.0036 70.6547 21.5918 73.2423Z" fill="white"/>
<path d="M16.2644 79.2177C19.2348 79.8696 21.2266 78.1313 21.2217 78.1511C21.1871 78.1511 18.6763 76.0523 15.953 75.2968C13.2001 74.5462 10.9018 75.5634 10.8969 75.5832C10.8574 75.5783 13.2594 78.561 16.2644 79.2177Z" fill="white"/>
<path d="M17.1742 68.4529C17.2681 71.085 15.8645 73.2133 15.8447 73.2133C15.8397 73.2479 13.6502 70.6553 13.7046 67.8603C13.754 65.0949 15.7409 63.4752 15.7211 63.4702C15.7211 63.4949 17.0754 65.8406 17.1742 68.4529Z" fill="white"/>
<path d="M10.932 73.3263C13.6899 74.472 15.9239 73.1288 15.914 73.1485C15.8844 73.1436 13.8481 70.6794 11.3324 69.4646C8.79195 68.2547 6.37509 68.8473 6.36521 68.8621C6.33061 68.8523 8.14449 72.1757 10.932 73.3263Z" fill="white"/>
<path d="M13.7303 63.0255C13.3596 65.6082 11.6149 67.4304 11.6001 67.4254C11.5902 67.4551 9.91472 64.5514 10.4485 61.8354C10.9675 59.144 13.1866 57.9095 13.1669 57.9045C13.157 57.9292 14.0861 60.4625 13.7303 63.0255Z" fill="white"/>
<path d="M6.79456 66.6798C9.28061 68.2798 11.6876 67.3564 11.6777 67.3761C11.653 67.3662 10.1011 64.6156 7.85225 62.986C5.57872 61.3564 3.1075 61.5045 3.09761 61.5243C3.06796 61.5045 4.27885 65.0699 6.79456 66.6798Z" fill="white"/>
<path d="M11.2887 57.1192C10.4929 59.5785 8.47643 61.0501 8.4616 61.0402C8.44677 61.0698 7.30012 57.939 8.27873 55.3711C9.23757 52.8279 11.6149 52.0082 11.6001 51.9983C11.5803 52.023 12.0696 54.6748 11.2887 57.1192Z" fill="white"/>
<path d="M3.88903 59.4603C6.05383 61.4652 8.55966 60.9912 8.54978 61.006C8.52506 60.9912 7.47725 58.0282 5.54476 56.0332C3.58754 54.0332 1.15092 53.7369 1.1361 53.7517C1.10644 53.732 1.69952 57.4455 3.88903 59.4603Z" fill="white"/>
<path d="M9.88344 50.892C8.69231 53.1685 6.47315 54.25 6.45832 54.2352C6.43855 54.2598 5.84051 50.9809 7.2244 48.6303C8.58852 46.2945 11.0548 45.9142 11.04 45.8994C11.0251 45.9192 11.0597 48.6303 9.88344 50.892Z" fill="white"/>
<path d="M2.24584 51.8705C4.03007 54.2261 6.56554 54.2063 6.55072 54.2211C6.53095 54.2014 5.99715 51.11 4.44028 48.799C2.85869 46.478 0.520919 45.7471 0.506092 45.7619C0.48138 45.7323 0.436907 49.5002 2.24584 51.8705Z" fill="white"/>
<path d="M9.55902 44.5024C8.01203 46.5369 5.65943 47.2036 5.64461 47.1888C5.61989 47.2135 5.58529 43.8703 7.33986 41.7863C9.07467 39.7172 11.5558 39.7765 11.5409 39.7666C11.5212 39.7814 11.0862 42.4777 9.55902 44.5024Z" fill="white"/>
<path d="M1.92259 44.0974C3.27188 46.7443 5.75793 47.174 5.73816 47.1838C5.72334 47.1641 5.71839 44.0184 4.58656 41.4505C3.43991 38.8678 1.28006 37.7271 1.26523 37.737C1.24052 37.7074 0.548587 41.4308 1.92259 44.0974Z" fill="white"/>
<path d="M10.3335 38.1069C8.46526 39.8501 6.0484 40.0871 6.03852 40.0723C6.00886 40.092 6.55253 36.7735 8.64319 35.0106C10.7091 33.2625 13.1309 33.7612 13.1211 33.7415C13.0964 33.7612 12.177 36.3735 10.3335 38.1069Z" fill="white"/>
<path d="M2.93397 36.3443C3.78901 39.2134 6.15151 40.0825 6.13174 40.0924C6.11691 40.0677 6.65564 36.9517 6.01312 34.1912C5.35578 31.4159 3.45293 29.89 3.43316 29.895C3.41339 29.8653 2.05421 33.4505 2.93397 36.3443Z" fill="white"/>
<path d="M12.2468 31.875C10.0919 33.2874 7.6899 33.0898 7.68002 33.075C7.65036 33.0898 8.78218 29.88 11.1793 28.4775C13.5467 27.0899 15.8301 28.0133 15.8252 27.9936C15.7906 28.0084 14.377 30.4726 12.2468 31.875Z" fill="white"/>
<path d="M5.32735 28.7985C5.63378 31.8108 7.78869 33.0997 7.76892 33.1046C7.75903 33.0799 8.85131 30.0676 8.75246 27.1886C8.63879 24.2948 7.08192 22.4282 7.0572 22.4282C7.04238 22.3985 5.00114 25.7565 5.32735 28.7985Z" fill="white"/>
<path d="M15.3315 25.9635C12.9294 27.0054 10.6114 26.3832 10.6065 26.3684C10.5719 26.3783 12.3116 23.3561 14.9707 22.3635C17.6001 21.3759 19.6709 22.6944 19.666 22.6746C19.6364 22.6795 17.7088 24.9264 15.3315 25.9635Z" fill="white"/>
<path d="M9.13754 21.6628C8.83605 24.7443 10.7092 26.4134 10.6845 26.4134C10.6796 26.3887 12.3403 23.5591 12.8444 20.6406C13.3386 17.7024 12.2019 15.5493 12.1772 15.5542C12.1673 15.5197 9.4242 18.5567 9.13754 21.6628Z" fill="white"/>
<path d="M19.6204 20.5371C17.0059 21.1791 14.851 20.1519 14.846 20.1322C14.8065 20.1371 17.1739 17.3865 20.0603 16.8285C22.9121 16.2705 24.6963 17.9495 24.6914 17.9297C24.6568 17.9347 22.2004 19.8902 19.6204 20.5371Z" fill="white"/>
<path d="M14.4082 15.1346C13.4345 18.1963 14.942 20.1963 14.9173 20.1963C14.9173 20.1716 17.1611 17.6037 18.3276 14.7296C19.4841 11.8408 18.8515 9.46054 18.8267 9.46054C18.8218 9.42598 15.372 12.0482 14.4082 15.1346Z" fill="white"/>
<path d="M45.1836 86.4375L45.1539 85.8696C40.4388 86.1165 35.7732 85.4202 31.2904 83.7906C26.9212 82.2054 22.908 79.8104 19.3692 76.6746C12.0197 70.166 7.46774 61.0995 6.53856 51.144C5.78236 42.991 6.59787 35.7861 8.9653 29.7219C11.5057 23.2084 15.7859 18.2011 21.6822 14.8332L21.4005 14.3394C15.3855 17.7714 11.0263 22.8825 8.43645 29.5145C6.03936 35.6626 5.20903 42.9564 5.97511 51.1983C6.91417 61.297 11.5354 70.4969 18.9935 77.1043C22.5867 80.2894 26.6593 82.719 31.0976 84.3289C35.6496 85.9832 40.3894 86.6894 45.1836 86.4375Z" fill="white"/>
<path d="M52.7867 70.8224L72.0825 62.4613C72.314 62.3621 72.4629 62.1308 72.4629 61.8829V32.6975C72.4629 32.243 71.9957 31.9374 71.5781 32.115L52.2823 40.4761C52.0507 40.5753 51.9019 40.8066 51.9019 41.0545V70.2399C51.9019 70.6943 52.365 71 52.7867 70.8224Z" fill="white"/>
<path d="M51.9021 39.4314L67.3859 29.1245C67.5968 28.9841 67.8779 29.1369 67.8779 29.3889V32.3013C67.8779 32.4293 67.8035 32.5409 67.6877 32.5904L51.9021 39.4314Z" fill="white"/>
<path d="M51.9028 37.6053L63.1942 26.8317C63.3968 26.6416 63.7275 26.7821 63.7275 27.0589V29.6738C63.7275 29.7812 63.6738 29.8803 63.5828 29.9382L51.9028 37.6053Z" fill="white"/>
<path d="M49.2187 70.8224L29.9229 62.4613C29.6914 62.3621 29.5425 62.1308 29.5425 61.8829V32.6975C29.5425 32.243 30.0097 31.9374 30.4273 32.115L49.7231 40.4761C49.9547 40.5753 50.1035 40.8066 50.1035 41.0545V70.2399C50.1035 70.6943 49.6363 71 49.2187 70.8224Z" fill="white"/>
<path d="M50.1035 39.4314L34.6197 29.1245C34.4088 28.9841 34.1277 29.1369 34.1277 29.3889V32.3013C34.1277 32.4293 34.2021 32.5409 34.3179 32.5904L50.1035 39.4314Z" fill="white"/>
<path d="M50.1035 37.6053L38.8121 26.8317C38.6095 26.6416 38.2788 26.7821 38.2788 27.0589V29.6738C38.2788 29.7812 38.3325 29.8803 38.4235 29.9382L50.1035 37.6053Z" fill="white"/>
</svg>
