<svg width="57" height="50" viewBox="0 0 57 50" fill="none" xmlns="http://www.w3.org/2000/svg">
<path d="M28.9478 0.479544L36.9509 4.10959C37.1518 4.20025 37.1518 4.48311 36.9509 4.57739L28.9478 8.20381C28.7067 8.3126 28.4291 8.3126 28.188 8.20381L20.185 4.57739C19.9841 4.48673 19.9841 4.20387 20.185 4.10959L28.188 0.479544C28.4255 0.370751 28.7031 0.370751 28.9478 0.479544Z" fill="#003057"/>
<path d="M28.6082 12.4974C32.1294 12.4974 34.7812 11.3079 34.7812 9.73041V5.60718L29.1451 8.1638C28.9625 8.24721 28.7652 8.29073 28.5643 8.29073C28.3634 8.29073 28.1662 8.24721 27.9836 8.1638L22.4351 5.64707V9.73041C22.4351 11.3079 25.087 12.4974 28.6082 12.4974Z" fill="white"/>
<path d="M27.7973 8.56998C28.0384 8.67877 28.2978 8.73679 28.5644 8.73679C28.831 8.73679 29.0904 8.6824 29.3315 8.56998L34.332 6.30347V9.73406C34.332 11.0142 31.7678 12.055 28.6082 12.055C25.4486 12.055 22.8844 11.0178 22.8844 9.73406V6.34336L27.7973 8.56998Z" fill="#003057"/>
<path d="M45.1711 6.86313C46.3539 7.85508 46.6211 9.47147 46.6211 9.47147C46.6211 9.47147 44.9707 9.47977 43.7879 8.48506C42.6051 7.49311 42.3379 5.87671 42.3379 5.87671C42.3379 5.87671 43.9883 5.87119 45.1711 6.86313Z" fill="#003057"/>
<path d="M38.5751 45.3141C37.6372 46.6045 37.6344 48.0882 37.6484 48.091C37.6456 48.1103 39.6939 47.4583 40.5678 46.0408C41.4445 44.6399 40.938 43.2418 40.9519 43.2473C40.9491 43.2611 39.5103 44.0348 38.5751 45.3141Z" fill="#003057"/>
<path d="M40.1869 49.6024C38.3584 49.3648 37.6292 48.0247 37.632 48.0385C37.6543 48.044 39.5774 47.414 41.264 47.5467C42.9644 47.6876 43.9998 48.6961 43.9998 48.7072C44.0248 48.7099 42.0349 49.8456 40.1869 49.6024Z" fill="#003057"/>
<path d="M42.104 43.6148C41.4805 45.0157 41.7783 46.4442 41.7895 46.4442C41.7895 46.4636 43.5735 45.4993 44.1301 43.9851C44.6895 42.4875 43.9408 41.2192 43.9547 41.2192C43.952 41.2331 42.7302 42.225 42.104 43.6148Z" fill="#003057"/>
<path d="M44.4726 47.4832C42.7081 47.555 41.7646 46.3835 41.7646 46.3945C41.7841 46.3973 43.4568 45.4744 45.0821 45.3197C46.7213 45.1732 47.9069 45.9718 47.9069 45.9828C47.932 45.9856 46.2566 47.4141 44.4726 47.4832Z" fill="#003057"/>
<path d="M45.1237 41.3794C44.7953 42.8383 45.3575 44.1673 45.3687 44.1673C45.3714 44.1867 46.8827 42.9543 47.1359 41.3932C47.392 39.8459 46.4402 38.7462 46.4513 38.7434C46.4513 38.76 45.4549 39.9315 45.1237 41.3794Z" fill="#003057"/>
<path d="M48.1267 44.7227C46.454 45.0874 45.3324 44.1148 45.3352 44.1259C45.3547 44.1259 46.7685 42.9516 48.302 42.5288C49.8522 42.1088 51.1464 42.678 51.1491 42.6891C51.1714 42.6863 49.8188 44.3552 48.1267 44.7227Z" fill="#003057"/>
<path d="M47.6141 38.6993C47.5612 40.172 48.3544 41.3629 48.3627 41.3629C48.3655 41.3823 49.5984 39.9317 49.5678 38.3678C49.54 36.8204 48.4212 35.9141 48.4323 35.9114C48.4323 35.9252 47.6697 37.2377 47.6141 38.6993Z" fill="#003057"/>
<path d="M51.1293 41.4263C49.5763 42.0674 48.3184 41.3158 48.3239 41.3269C48.3406 41.3241 49.4873 39.9453 50.9039 39.2656C52.3344 38.5887 53.6981 38.9202 53.7009 38.9285C53.7204 38.923 52.699 40.7825 51.1293 41.4263Z" fill="#003057"/>
<path d="M49.5539 35.6627C49.7626 37.1078 50.7422 38.1273 50.7534 38.1246C50.7589 38.1412 51.7024 36.5165 51.4018 34.9968C51.1096 33.4909 49.86 32.8001 49.8683 32.7974C49.8767 32.8112 49.3535 34.2286 49.5539 35.6627Z" fill="#003057"/>
<path d="M53.4589 37.7073C52.059 38.6026 50.7037 38.0859 50.7092 38.0969C50.7231 38.0914 51.597 36.5524 52.8634 35.6406C54.1436 34.7287 55.5324 34.8116 55.5407 34.8227C55.5574 34.8116 54.8755 36.8066 53.4589 37.7073Z" fill="#003057"/>
<path d="M50.9294 32.358C51.3775 33.734 52.513 34.5574 52.5214 34.5519C52.5297 34.5685 53.1754 32.8167 52.6271 31.3799C52.0872 29.9569 50.7485 29.4982 50.7569 29.4927C50.7624 29.5065 50.4897 30.9903 50.9294 32.358Z" fill="#003057"/>
<path d="M55.0957 33.6678C53.8767 34.7896 52.4657 34.5243 52.4712 34.5326C52.4851 34.5243 53.0752 32.8665 54.1634 31.7502C55.2627 30.6312 56.6375 30.4654 56.6459 30.4737C56.6626 30.4626 56.3286 32.5405 55.0957 33.6678Z" fill="#003057"/>
<path d="M51.72 28.8738C52.3907 30.1476 53.6403 30.7527 53.6487 30.7444C53.6598 30.7582 53.9965 28.9235 53.2173 27.6083C52.4491 26.3014 51.0604 26.0886 51.0687 26.0803C51.0771 26.0914 51.0576 27.6083 51.72 28.8738Z" fill="#003057"/>
<path d="M56.0167 29.421C55.012 30.739 53.5842 30.7279 53.5926 30.7362C53.6037 30.7252 53.9043 28.9955 54.781 27.7023C55.6716 26.4037 56.988 25.9948 56.9963 26.0031C57.0102 25.9865 57.0353 28.0947 56.0167 29.421Z" fill="#003057"/>
<path d="M51.9026 25.2985C52.7737 26.4369 54.0985 26.8099 54.1068 26.8016C54.1208 26.8154 54.1402 24.9448 53.1522 23.7788C52.1754 22.6211 50.7782 22.6542 50.7866 22.6487C50.7977 22.657 51.0426 24.1656 51.9026 25.2985Z" fill="#003057"/>
<path d="M56.2032 25.0719C55.4434 26.5529 54.0435 26.7933 54.0546 26.7988C54.063 26.7878 54.0657 25.0277 54.7031 23.5909C55.3488 22.1458 56.565 21.5075 56.5733 21.513C56.5845 21.4965 56.9769 23.5798 56.2032 25.0719Z" fill="#003057"/>
<path d="M51.4666 21.72C52.5186 22.6954 53.8795 22.828 53.8851 22.8197C53.9018 22.8308 53.5957 20.974 52.4184 19.9876C51.2551 19.0095 49.8913 19.2885 49.8969 19.2775C49.908 19.2885 50.4257 20.7502 51.4666 21.72Z" fill="#003057"/>
<path d="M55.6325 20.7337C55.151 22.339 53.8207 22.8253 53.8318 22.8309C53.8402 22.817 53.5368 21.0735 53.8986 19.529C54.2688 17.9761 55.3403 17.1223 55.3514 17.1251C55.3597 17.1085 56.1279 19.1145 55.6325 20.7337Z" fill="#003057"/>
<path d="M50.39 18.2331C51.6034 19.0234 52.956 18.9129 52.9616 18.9046C52.9783 18.9129 52.341 17.1169 50.9911 16.3321C49.658 15.5557 48.3722 16.0724 48.375 16.0614C48.3917 16.0697 49.1905 17.4484 50.39 18.2331Z" fill="#003057"/>
<path d="M54.2854 16.5117C54.1128 18.1972 52.8994 18.9184 52.9105 18.9212C52.9161 18.9073 52.301 17.2219 52.3567 15.611C52.4207 13.9918 53.2974 12.9474 53.3113 12.9474C53.3169 12.9308 54.4663 14.8097 54.2854 16.5117Z" fill="#003057"/>
<path d="M48.6525 14.9257C50.0051 15.5087 51.3104 15.1605 51.3132 15.1522C51.3327 15.1578 50.353 13.4668 48.8529 12.9114C47.3751 12.3588 46.2062 13.0965 46.209 13.0855C46.2284 13.0882 47.3139 14.3454 48.6525 14.9257Z" fill="#003057"/>
<path d="M52.1368 12.5192C52.3065 14.2433 51.2517 15.1772 51.2657 15.1772C51.2684 15.1634 50.3333 13.5802 50.0494 11.9472C49.7711 10.3032 50.4112 9.09847 50.4252 9.10124C50.4335 9.0819 51.9754 10.7812 52.1368 12.5192Z" fill="#003057"/>
<path d="M46.237 11.8892C47.7093 12.2484 48.9227 11.6736 48.9255 11.6626C48.9478 11.6654 47.6147 10.1263 45.9893 9.81409C44.3835 9.50186 43.3788 10.4413 43.3815 10.4303C43.401 10.433 44.7814 11.5272 46.237 11.8892Z" fill="#003057"/>
<path d="M49.1699 8.86637C49.7181 10.5795 48.8693 11.6985 48.8832 11.6985C48.8832 11.6847 47.6197 10.2479 46.9629 8.6398C46.3116 7.0234 46.6678 5.6916 46.6818 5.6916C46.6873 5.67225 48.6299 7.13945 49.1699 8.86637Z" fill="#003057"/>
<path d="M31.843 48.7623L31.8597 48.4446C34.5148 48.5827 37.142 48.1931 39.6691 47.2813C42.1294 46.3944 44.3893 45.0543 46.382 43.2997C50.5205 39.658 53.0837 34.585 53.6069 29.0146C54.0328 24.4528 53.5736 20.4214 52.2404 17.0284C50.8099 13.3839 48.3997 10.5821 45.0795 8.69769L45.2381 8.42139C48.6252 10.3417 51.0799 13.2015 52.5382 16.9123C53.8908 20.3524 54.3556 24.4334 53.9242 29.045C53.3954 34.6955 50.7932 39.8431 46.5935 43.5401C44.5702 45.3223 42.2769 46.6817 39.7777 47.5825C37.2116 48.5081 34.5426 48.9033 31.843 48.7623Z" fill="#003057"/>
<path d="M11.9598 6.86313C10.7769 7.85508 10.5098 9.47147 10.5098 9.47147C10.5098 9.47147 12.1601 9.47977 13.343 8.48506C14.5258 7.49311 14.793 5.87671 14.793 5.87671C14.793 5.87671 13.1426 5.87119 11.9598 6.86313Z" fill="#003057"/>
<path d="M18.5558 45.3141C19.4937 46.6045 19.4965 48.0882 19.4826 48.091C19.4854 48.1103 17.437 47.4583 16.5631 46.0408C15.6864 44.6399 16.1929 43.2418 16.179 43.2473C16.1818 43.2611 17.6207 44.0348 18.5558 45.3141Z" fill="#003057"/>
<path d="M16.9412 49.6024C18.7697 49.3648 19.4989 48.0247 19.4961 48.0385C19.4738 48.044 17.5507 47.414 15.8641 47.5467C14.1636 47.6876 13.1283 48.6961 13.1283 48.7072C13.1061 48.7099 15.0932 49.8456 16.9412 49.6024Z" fill="#003057"/>
<path d="M15.0236 43.6148C15.647 45.0157 15.352 46.4442 15.3381 46.4442C15.3381 46.4636 13.5541 45.4993 12.9975 43.9851C12.4381 42.4875 13.1868 41.2192 13.1729 41.2192C13.1784 41.2331 14.4002 42.225 15.0236 43.6148Z" fill="#003057"/>
<path d="M12.6582 47.4832C14.4227 47.555 15.3662 46.3835 15.3662 46.3945C15.3467 46.3973 13.6741 45.4744 12.0487 45.3197C10.4095 45.1732 9.22388 45.9718 9.22388 45.9828C9.19883 45.9856 10.8743 47.4141 12.6582 47.4832Z" fill="#003057"/>
<path d="M12.0036 41.3794C12.332 42.8383 11.7698 44.1673 11.7587 44.1673C11.7587 44.1867 10.2447 42.9543 9.99141 41.3932C9.73537 39.8459 10.6872 38.7462 10.6761 38.7434C10.6761 38.76 11.6724 39.9315 12.0036 41.3794Z" fill="#003057"/>
<path d="M9.00345 44.7227C10.6761 45.0874 11.7977 44.1148 11.7949 44.1259C11.7754 44.1259 10.3616 42.9516 8.82812 42.5288C7.27792 42.1088 5.98378 42.678 5.981 42.6891C5.95873 42.6863 7.31132 44.3552 9.00345 44.7227Z" fill="#003057"/>
<path d="M9.51602 38.6993C9.56889 40.172 8.77849 41.3629 8.76736 41.3629C8.76457 41.3823 7.53166 39.9317 7.56227 38.3678C7.5901 36.8204 8.70891 35.9141 8.69778 35.9114C8.69778 35.9252 9.46035 37.2377 9.51602 38.6993Z" fill="#003057"/>
<path d="M6.00124 41.4263C7.55422 42.0674 8.81219 41.3158 8.80662 41.3269C8.78992 41.3241 7.64328 39.9453 6.22667 39.2656C4.79615 38.5887 3.43521 38.9202 3.42965 38.9285C3.41016 38.923 4.43156 40.7825 6.00124 41.4263Z" fill="#003057"/>
<path d="M7.57633 35.6627C7.36759 37.1078 6.38516 38.1273 6.37681 38.1246C6.37124 38.1412 5.42777 36.5165 5.72835 34.9968C6.02057 33.4909 7.27019 32.8001 7.25906 32.7974C7.25349 32.8112 7.77671 34.2286 7.57633 35.6627Z" fill="#003057"/>
<path d="M3.67116 37.7073C5.07107 38.6026 6.42645 38.0859 6.42088 38.0969C6.40697 38.0914 5.53307 36.5524 4.26675 35.6406C2.98652 34.7287 1.59497 34.8116 1.5894 34.8227C1.5727 34.8116 2.25456 36.8066 3.67116 37.7073Z" fill="#003057"/>
<path d="M6.20173 32.358C5.75365 33.734 4.61814 34.5574 4.60979 34.5519C4.60144 34.5685 3.95576 32.8167 4.50681 31.3799C5.04674 29.9569 6.38541 29.4982 6.37706 29.4927C6.36593 29.5065 6.64146 30.9903 6.20173 32.358Z" fill="#003057"/>
<path d="M2.03468 33.6678C3.25368 34.7896 4.66473 34.5243 4.65916 34.5326C4.64525 34.5243 4.05522 32.8665 2.96703 31.7502C1.86491 30.6312 0.492843 30.4654 0.484494 30.4737C0.467795 30.4626 0.801762 32.5405 2.03468 33.6678Z" fill="#003057"/>
<path d="M5.41024 28.8738C4.73951 30.1476 3.48989 30.7527 3.48154 30.7444C3.47041 30.7582 3.13365 28.9235 3.91292 27.6083C4.68106 26.3014 6.06984 26.0886 6.06149 26.0803C6.05314 26.0914 6.07262 27.6083 5.41024 28.8738Z" fill="#003057"/>
<path d="M1.11005 29.421C2.11476 30.739 3.54249 30.7279 3.53414 30.7362C3.52301 30.7252 3.22243 28.9955 2.34575 27.7023C1.45515 26.4037 0.138742 25.9948 0.130393 26.0031C0.116477 25.9865 0.0914347 28.0947 1.11005 29.421Z" fill="#003057"/>
<path d="M5.22768 25.2985C4.35657 26.4369 3.03181 26.8099 3.02346 26.8016C3.00955 26.8154 2.99006 24.9448 3.97807 23.7788C4.95494 22.6211 6.35206 22.6542 6.34371 22.6487C6.33258 22.657 6.08766 24.1656 5.22768 25.2985Z" fill="#003057"/>
<path d="M0.927542 25.0719C1.68733 26.5529 3.08724 26.7933 3.07611 26.7988C3.06776 26.7878 3.06497 25.0277 2.42764 23.5909C1.78195 22.1458 0.565733 21.5075 0.557383 21.513C0.543468 21.4965 0.153837 23.5798 0.927542 25.0719Z" fill="#003057"/>
<path d="M5.6637 21.72C4.61168 22.6954 3.25074 22.828 3.24518 22.8197C3.22848 22.8308 3.53462 20.974 4.71187 19.9876C5.87521 19.0095 7.23895 19.2885 7.23338 19.2775C7.21947 19.2885 6.7018 20.7502 5.6637 21.72Z" fill="#003057"/>
<path d="M1.49737 20.7337C1.97885 22.339 3.30918 22.8253 3.29804 22.8309C3.28969 22.817 3.59306 21.0735 3.23125 19.529C2.8611 17.9761 1.7896 17.1223 1.77847 17.1251C1.76733 17.1085 1.00197 19.1145 1.49737 20.7337Z" fill="#003057"/>
<path d="M6.74088 18.2331C5.52744 19.0234 4.17485 18.9129 4.16928 18.9046C4.15258 18.9129 4.78991 17.1169 6.13972 16.3321C7.47283 15.5557 8.75864 16.0724 8.75585 16.0614C8.73637 16.0697 7.9404 17.4484 6.74088 18.2331Z" fill="#003057"/>
<path d="M2.84509 16.5117C3.01764 18.1972 4.23108 18.9184 4.21994 18.9212C4.21438 18.9073 4.82944 17.2219 4.77378 15.611C4.70977 13.9918 3.83309 12.9474 3.81918 12.9474C3.81083 12.9308 2.6614 14.8097 2.84509 16.5117Z" fill="#003057"/>
<path d="M8.47815 14.9257C7.12556 15.5087 5.82027 15.1605 5.81749 15.1522C5.79801 15.1578 6.77767 13.4668 8.27498 12.9114C9.7556 12.3588 10.9217 13.0965 10.9189 13.0855C10.9022 13.0882 9.81683 14.3454 8.47815 14.9257Z" fill="#003057"/>
<path d="M4.99107 12.5192C4.8213 14.2433 5.8761 15.1772 5.86219 15.1772C5.8594 15.1634 6.79453 13.5802 7.07841 11.9472C7.35672 10.3032 6.71661 9.09847 6.70269 9.10124C6.69713 9.0819 5.15249 10.7812 4.99107 12.5192Z" fill="#003057"/>
<path d="M10.8935 11.8892C9.42128 12.2484 8.20784 11.6736 8.20506 11.6626C8.1828 11.6654 9.5159 10.1263 11.1412 9.81409C12.7471 9.50186 13.7518 10.4413 13.749 10.4303C13.7295 10.433 12.3463 11.5272 10.8935 11.8892Z" fill="#003057"/>
<path d="M7.9579 8.86637C7.40963 10.5795 8.25848 11.6985 8.24456 11.6985C8.24456 11.6847 9.5081 10.2479 10.1649 8.6398C10.8162 7.0234 10.4599 5.6916 10.446 5.6916C10.4432 5.67225 8.50061 7.13945 7.9579 8.86637Z" fill="#003057"/>
<path d="M25.2881 48.7623L25.2714 48.4446C22.6163 48.5827 19.989 48.1931 17.4648 47.2813C15.0045 46.3944 12.7446 45.0543 10.7519 43.2997C6.61339 39.658 4.05015 34.585 3.52692 29.0146C3.10111 24.4528 3.56032 20.4214 4.89343 17.0284C6.32395 13.3839 8.73412 10.5821 12.0544 8.69769L11.8957 8.42139C8.5087 10.3417 6.05399 13.2015 4.59564 16.9123C3.24583 20.3524 2.77826 24.4334 3.20964 29.045C3.73844 34.6955 6.34065 39.8431 10.5404 43.5401C12.5637 45.3223 14.857 46.6817 17.3562 47.5825C19.9195 48.5081 22.5885 48.9033 25.2881 48.7623Z" fill="#003057"/>
<path d="M29.5697 40.0252L40.4352 35.3469C40.5656 35.2914 40.6494 35.162 40.6494 35.0233V18.6932C40.6494 18.439 40.3863 18.2679 40.1512 18.3673L29.2856 23.0456C29.1553 23.1011 29.0714 23.2305 29.0714 23.3692V39.6993C29.0714 39.9535 29.3322 40.1246 29.5697 40.0252Z" fill="#003057"/>
<path d="M29.0713 22.461L37.7903 16.694C37.9091 16.6154 38.0674 16.7009 38.0674 16.8419V18.4715C38.0674 18.5431 38.0255 18.6055 37.9603 18.6333L29.0713 22.461Z" fill="#003057"/>
<path d="M29.0719 21.4393L35.4301 15.4111C35.5442 15.3048 35.7305 15.3834 35.7305 15.5383V17.0014C35.7305 17.0615 35.7002 17.117 35.649 17.1493L29.0719 21.4393Z" fill="#003057"/>
<path d="M27.5604 40.0252L16.6948 35.3469C16.5644 35.2914 16.4806 35.162 16.4806 35.0233V18.6932C16.4806 18.439 16.7437 18.2679 16.9788 18.3673L27.8444 23.0456C27.9748 23.1011 28.0586 23.2305 28.0586 23.3692V39.6993C28.0586 39.9535 27.7955 40.1246 27.5604 40.0252Z" fill="#003057"/>
<path d="M28.0586 22.461L19.3396 16.694C19.2209 16.6154 19.0626 16.7009 19.0626 16.8419V18.4715C19.0626 18.5431 19.1045 18.6055 19.1696 18.6333L28.0586 22.461Z" fill="#003057"/>
<path d="M28.0586 21.4393L21.7004 15.4111C21.5863 15.3048 21.4 15.3834 21.4 15.5383V17.0014C21.4 17.0615 21.4303 17.117 21.4815 17.1493L28.0586 21.4393Z" fill="#003057"/>
</svg>
