<svg width="24" height="24" viewBox="0 0 24 24" fill="none" xmlns="http://www.w3.org/2000/svg">
<path d="M16.5 7.49976V7.50976M4 7.99976C4 6.93889 4.42143 5.92147 5.17157 5.17133C5.92172 4.42118 6.93913 3.99976 8 3.99976H16C17.0609 3.99976 18.0783 4.42118 18.8284 5.17133C19.5786 5.92147 20 6.93889 20 7.99976V15.9998C20 17.0606 19.5786 18.078 18.8284 18.8282C18.0783 19.5783 17.0609 19.9998 16 19.9998H8C6.93913 19.9998 5.92172 19.5783 5.17157 18.8282C4.42143 18.078 4 17.0606 4 15.9998V7.99976ZM9 11.9998C9 12.7954 9.31607 13.5585 9.87868 14.1211C10.4413 14.6837 11.2044 14.9998 12 14.9998C12.7956 14.9998 13.5587 14.6837 14.1213 14.1211C14.6839 13.5585 15 12.7954 15 11.9998C15 11.2041 14.6839 10.441 14.1213 9.87844C13.5587 9.31583 12.7956 8.99976 12 8.99976C11.2044 8.99976 10.4413 9.31583 9.87868 9.87844C9.31607 10.441 9 11.2041 9 11.9998Z" stroke="white" stroke-width="1.5" stroke-linecap="round" stroke-linejoin="round"/>
</svg>
