<svg width="24" height="24" viewBox="0 0 24 24" fill="none" xmlns="http://www.w3.org/2000/svg">
<path d="M3 8.99976C3 7.93889 3.42143 6.92147 4.17157 6.17133C4.92172 5.42118 5.93913 4.99976 7 4.99976H17C18.0609 4.99976 19.0783 5.42118 19.8284 6.17133C20.5786 6.92147 21 7.93889 21 8.99976V14.9998C21 16.0606 20.5786 17.078 19.8284 17.8282C19.0783 18.5783 18.0609 18.9998 17 18.9998H7C5.93913 18.9998 4.92172 18.5783 4.17157 17.8282C3.42143 17.078 3 16.0606 3 14.9998V8.99976Z" stroke="white" stroke-width="1.5" stroke-linecap="round" stroke-linejoin="round"/>
<path d="M10 8.99976L15 11.9998L10 14.9998V8.99976Z" stroke="white" stroke-width="1.5" stroke-linecap="round" stroke-linejoin="round"/>
</svg>
