<svg width="33" height="32" viewBox="0 0 33 32" fill="none" xmlns="http://www.w3.org/2000/svg">
<g clip-path="url(#clip0_93_1471)">
<path d="M16.5003 2.66675C11.3403 2.66675 7.16699 6.84008 7.16699 12.0001C7.16699 19.0001 16.5003 29.3334 16.5003 29.3334C16.5003 29.3334 25.8337 19.0001 25.8337 12.0001C25.8337 6.84008 21.6603 2.66675 16.5003 2.66675ZM9.83366 12.0001C9.83366 8.32008 12.8203 5.33341 16.5003 5.33341C20.1803 5.33341 23.167 8.32008 23.167 12.0001C23.167 15.8401 19.327 21.5867 16.5003 25.1734C13.727 21.6134 9.83366 15.8001 9.83366 12.0001Z" fill="white"/>
<path d="M16.5003 15.3334C18.3413 15.3334 19.8337 13.841 19.8337 12.0001C19.8337 10.1591 18.3413 8.66675 16.5003 8.66675C14.6594 8.66675 13.167 10.1591 13.167 12.0001C13.167 13.841 14.6594 15.3334 16.5003 15.3334Z" fill="white"/>
</g>
<defs>
<clipPath id="clip0_93_1471">
<rect width="32" height="32" fill="white" transform="translate(0.5)"/>
</clipPath>
</defs>
</svg>
