<svg width="33" height="32" viewBox="0 0 33 32" fill="none" xmlns="http://www.w3.org/2000/svg">
<path d="M4.5 9.33341C4.5 8.62617 4.78095 7.94789 5.28105 7.4478C5.78115 6.9477 6.45942 6.66675 7.16667 6.66675H25.8333C26.5406 6.66675 27.2189 6.9477 27.719 7.4478C28.219 7.94789 28.5 8.62617 28.5 9.33341M4.5 9.33341V22.6667C4.5 23.374 4.78095 24.0523 5.28105 24.5524C5.78115 25.0525 6.45942 25.3334 7.16667 25.3334H25.8333C26.5406 25.3334 27.2189 25.0525 27.719 24.5524C28.219 24.0523 28.5 23.374 28.5 22.6667V9.33341M4.5 9.33341L16.5 17.3334L28.5 9.33341" stroke="white" stroke-width="2" stroke-linecap="round" stroke-linejoin="round"/>
</svg>
