<svg width="42" height="42" viewBox="0 0 42 42" fill="none" xmlns="http://www.w3.org/2000/svg">
<g clip-path="url(#clip0_324_985)">
<path fill-rule="evenodd" clip-rule="evenodd" d="M12.0376 12.8856L12.8356 16.4304L16.4896 16.758C16.8004 16.7832 17.0356 17.0604 17.002 17.3796C16.9852 17.5728 16.876 17.7324 16.7248 17.8164L13.5664 19.6812L14.3812 23.2596C14.4484 23.5704 14.2552 23.8728 13.9528 23.94C13.768 23.982 13.5832 23.9316 13.4488 23.814L10.6936 21.3864L7.54362 23.268C7.27482 23.4276 6.92202 23.3436 6.76242 23.0748C6.66162 22.8984 6.66162 22.6968 6.73722 22.5288L8.18202 19.1856L5.41842 16.7664C5.18322 16.5564 5.15802 16.1952 5.36802 15.96C5.49402 15.8172 5.67042 15.75 5.84682 15.7668L9.50082 16.1112L10.9456 12.7428C11.0716 12.4488 11.4076 12.3144 11.6932 12.4404C11.8864 12.5328 12.004 12.7008 12.0376 12.8856ZM29.308 35.6412C29.1484 35.3724 29.2408 35.0196 29.5096 34.86C29.7784 34.7004 30.1312 34.7928 30.2908 35.0616C30.6184 35.6076 31.072 35.8344 31.4668 35.8092C31.618 35.8008 31.7692 35.7504 31.8952 35.6748C32.0296 35.5908 32.1388 35.4816 32.2228 35.3304C32.4832 34.8684 32.4748 34.1208 31.8952 33.1548C31.4752 32.4492 31.3576 31.5924 31.5172 30.8364C31.618 30.3744 31.8196 29.946 32.122 29.6016C32.4412 29.2488 32.8612 28.9968 33.382 28.9044C34.0372 28.7868 34.8352 28.938 35.7508 29.484C36.3892 29.862 36.9016 30.0384 37.288 30.0468C37.4896 30.0468 37.6324 30.0048 37.7332 29.9208C37.8424 29.8284 37.9096 29.6688 37.9432 29.4588C38.0188 29.022 37.9264 28.4256 37.6744 27.7032C37.3804 26.8716 37.3048 26.1324 37.3972 25.5276C37.4896 24.9144 37.7584 24.4272 38.1532 24.0744C38.548 23.7216 39.052 23.52 39.6316 23.478C40.2364 23.436 40.9336 23.562 41.656 23.898C41.9416 24.0324 42.0676 24.3684 41.9416 24.654C41.8072 24.9396 41.4712 25.0656 41.1856 24.9396C40.6396 24.696 40.144 24.5952 39.7156 24.6204C39.388 24.6456 39.1108 24.7464 38.9092 24.9312C38.7076 25.1076 38.5732 25.368 38.5228 25.704C38.4556 26.1324 38.5228 26.6784 38.7496 27.3252C39.0688 28.2324 39.1696 29.0304 39.0688 29.6436C38.9932 30.1224 38.7916 30.5004 38.4892 30.7692C38.1784 31.0464 37.7668 31.1892 37.2628 31.1808C36.6916 31.1724 35.986 30.9456 35.1712 30.4584C34.5076 30.072 33.9784 29.9544 33.5836 30.0216C33.3316 30.0636 33.13 30.1896 32.9788 30.3576C32.8108 30.5424 32.7016 30.786 32.6428 31.0548C32.542 31.542 32.6176 32.0964 32.8864 32.5584C33.7012 33.936 33.6592 35.1036 33.214 35.8848C33.0292 36.1956 32.7856 36.4476 32.5 36.6324C32.2144 36.8088 31.8868 36.918 31.5508 36.9432C30.7528 37.002 29.8792 36.6072 29.308 35.6412ZM1.03362 25.3176C1.27722 25.1244 1.63842 25.1664 1.83162 25.41C2.02482 25.6536 1.98282 26.0148 1.73922 26.208C1.23522 26.6028 1.07562 27.0816 1.15962 27.4764C1.19322 27.6276 1.26042 27.762 1.35282 27.8796C1.45362 27.9972 1.57962 28.0896 1.73922 28.1568C2.22642 28.3584 2.97402 28.2408 3.84762 27.5436C4.49442 27.0312 5.32602 26.796 6.09042 26.8548C6.56082 26.8884 7.01442 27.0312 7.39242 27.2916C7.78722 27.5604 8.08962 27.9468 8.24922 28.4424C8.45082 29.0724 8.41722 29.8872 7.99722 30.87C7.71162 31.5588 7.60242 32.088 7.64442 32.466C7.66962 32.6676 7.72842 32.8104 7.82922 32.8944C7.93842 32.9868 8.09802 33.0372 8.31642 33.0456C8.75322 33.0624 9.34122 32.8944 10.0216 32.5416C10.8112 32.1384 11.5252 31.962 12.1384 31.9704C12.7516 31.9788 13.2724 32.1804 13.6756 32.5248C14.0788 32.8692 14.3476 33.3396 14.4652 33.9108C14.5912 34.5072 14.5576 35.2128 14.3224 35.9772C14.23 36.2796 13.9108 36.4476 13.6084 36.3636C13.306 36.2712 13.138 35.952 13.222 35.6496C13.3984 35.0784 13.4236 34.566 13.3396 34.146C13.2724 33.8268 13.1296 33.5664 12.928 33.39C12.7264 33.2136 12.4492 33.1212 12.1048 33.1128C11.668 33.1044 11.1388 33.2388 10.5256 33.558C9.66882 33.9948 8.89602 34.2048 8.26602 34.188C7.78722 34.1712 7.37562 34.0284 7.06482 33.7596C6.74562 33.4824 6.54402 33.096 6.48522 32.6004C6.41802 32.0292 6.54402 31.3068 6.91362 30.4332C7.21602 29.7192 7.25802 29.1816 7.13202 28.7952C7.05642 28.5516 6.90522 28.3668 6.72042 28.2408C6.51882 28.098 6.25842 28.0224 5.98122 28.0056C5.48562 27.972 4.93962 28.1232 4.52802 28.4508C3.26802 29.4504 2.10882 29.568 1.27722 29.2236C0.941218 29.0892 0.664018 28.8792 0.445618 28.6188C0.227218 28.3584 0.0760184 28.0476 0.00881836 27.72C-0.117182 26.9304 0.151618 26.0148 1.03362 25.3176ZM19.1272 13.2468C19.1272 12.936 19.3792 12.6756 19.69 12.6756C20.0008 12.6756 20.2612 12.9276 20.2612 13.2384C20.278 14.9184 20.4628 16.8 20.8156 18.8748C21.1684 20.958 21.6892 23.2428 22.378 25.7124C22.462 26.0148 22.2856 26.334 21.9832 26.418C21.6808 26.502 21.3616 26.3256 21.2776 26.0232C20.572 23.5116 20.0428 21.1932 19.69 19.0764C19.3288 16.9344 19.144 14.994 19.1272 13.2468ZM20.9416 3.066C20.908 2.8812 20.7904 2.7132 20.6056 2.6376C20.3116 2.5116 19.984 2.646 19.858 2.94L18.4132 6.3084L14.7592 5.964C14.5828 5.9472 14.398 6.0144 14.2804 6.1572C14.0704 6.3924 14.0956 6.7536 14.3308 6.9636L17.0944 9.3828L15.6496 12.726C15.5656 12.894 15.5656 13.0956 15.6748 13.272C15.8344 13.5408 16.1872 13.6332 16.456 13.4652L19.606 11.5836L22.3612 14.0112C22.4956 14.1288 22.6804 14.1792 22.8652 14.1372C23.176 14.07 23.3692 13.7592 23.2936 13.4568L22.4788 9.8784L25.6372 8.0136C25.7884 7.9212 25.8976 7.7616 25.9144 7.5768C25.9396 7.266 25.7128 6.9888 25.402 6.9552L21.748 6.6276L20.9416 3.066ZM25.8556 23.6376C24.8728 24.99 24.0412 26.9304 23.3608 29.484C22.6972 31.9872 22.168 35.0868 21.79 38.7828C21.7564 39.0936 21.9832 39.3792 22.3024 39.4044C22.6132 39.438 22.8988 39.2112 22.924 38.892C23.302 35.2548 23.8144 32.214 24.4612 29.7612C25.0996 27.3504 25.8724 25.536 26.7712 24.3012C26.956 24.0492 26.9056 23.688 26.6452 23.5032C26.4016 23.3268 26.0404 23.3772 25.8556 23.6376ZM27.1912 19.4544L23.8564 20.9748C23.5708 21.1092 23.4448 21.4452 23.5708 21.7308C23.6464 21.9072 23.806 22.0164 23.9824 22.05L27.5776 22.764L27.9976 26.4096C28.0312 26.7204 28.3168 26.9472 28.6276 26.9136C28.8292 26.8884 28.9972 26.7624 29.0812 26.5944L30.8536 23.4192L34.4488 24.1416C34.7596 24.2004 35.0536 24.0072 35.1208 23.6964C35.1544 23.5116 35.0956 23.3268 34.978 23.2008L32.4832 20.5128L34.2808 17.3124C34.432 17.0352 34.3396 16.6908 34.0624 16.5312C33.886 16.4304 33.6844 16.4388 33.5248 16.5228L30.2152 18.0516L27.7288 15.3552C27.5188 15.12 27.1576 15.1116 26.9224 15.3216C26.7796 15.4476 26.7208 15.6324 26.746 15.8088L27.1912 19.4544ZM15.4228 21.6972C16.246 22.5876 17.338 24.8556 18.2032 27.7368C18.9256 30.1308 19.4716 32.9196 19.5808 35.6664C19.5892 35.9772 19.858 36.2292 20.1688 36.2124C20.4796 36.204 20.7316 35.9352 20.7148 35.6244C20.6056 32.76 20.0344 29.8788 19.2868 27.4092C18.3712 24.3684 17.1784 21.924 16.246 20.916C16.036 20.6892 15.6748 20.6724 15.4396 20.8824C15.2296 21.1008 15.2128 21.462 15.4228 21.6972Z" fill="black"/>
</g>
<defs>
<clipPath id="clip0_324_985">
<rect width="42" height="42" fill="white"/>
</clipPath>
</defs>
</svg>
