<svg width="42" height="42" viewBox="0 0 42 42" fill="none" xmlns="http://www.w3.org/2000/svg">
<path d="M35.2384 8.10608H29.4004V11.4661H35.2384V8.10608Z" fill="black"/>
<path d="M40.0265 5.12404C37.9265 3.40204 35.2385 2.39404 32.2985 2.39404C29.3585 2.39404 26.7125 3.40204 24.5705 5.12404C23.9825 5.58604 23.6465 6.34204 23.6465 7.09804V14.532C23.6465 15.414 24.3605 16.128 25.2005 16.128H27.7205L27.5525 14.574C26.9225 14.448 26.4185 13.86 26.4185 13.188V12.894C26.4185 12.138 27.0485 11.508 27.8465 11.508H28.4345V7.64404C28.4345 7.35004 28.6445 7.14004 28.9385 7.14004H35.7005C35.9945 7.14004 36.2045 7.35004 36.2045 7.64404V11.508H36.7925C37.5485 11.508 38.1785 12.138 38.1785 12.894V13.188C38.1785 13.86 37.7165 14.448 37.0865 14.574L36.9185 16.128H39.3545C40.1945 16.128 40.9085 15.414 40.9085 14.532V7.09804C40.9505 6.34204 40.6145 5.62804 40.0265 5.12404Z" fill="black"/>
<path d="M37.2128 13.188V12.852C37.2128 12.6 37.0028 12.432 36.7928 12.432H27.8468C27.5948 12.432 27.4268 12.642 27.4268 12.852V13.188C27.4268 13.44 27.6368 13.608 27.8468 13.608H28.4348L29.2328 20.706C29.2748 20.916 29.4428 21.084 29.6528 21.084H29.6948C29.9468 21.042 30.1148 20.832 30.0728 20.622L30.0308 20.244H30.9968V20.664C30.9968 20.874 31.2068 21.084 31.4168 21.084C31.6688 21.084 31.8368 20.874 31.8368 20.622V20.244H32.8028V20.622C32.8028 20.874 32.9708 21.042 33.2228 21.084C33.4328 21.084 33.6428 20.916 33.6428 20.664V20.244H34.6088L34.5668 20.622C34.5248 20.874 34.6928 21.084 34.9448 21.084H34.9868C35.1968 21.084 35.4068 20.916 35.4068 20.706L36.1628 13.608H36.7508C37.0448 13.608 37.2128 13.398 37.2128 13.188ZM29.2748 13.608H30.7448L30.7868 14.952H29.4428L29.2748 13.608ZM29.6948 17.136L29.5268 15.75H30.8288L30.8708 17.136H29.6948ZM29.9048 19.404L29.7368 18.018H30.8708L30.9128 19.404H29.9048ZM32.8448 19.404H31.7948L31.7528 18.018H32.8868L32.8448 19.404ZM32.9288 17.136H31.7528L31.7108 15.75H33.0128L32.9288 17.136ZM33.0128 14.91H31.6688L31.6268 13.566H33.0968L33.0128 14.91ZM34.7348 19.404H33.6848L33.7268 18.018H34.8608L34.7348 19.404ZM34.9868 17.136H33.8108L33.8528 15.75H35.1548L34.9868 17.136ZM35.1968 14.91H33.8528L33.8948 13.566H35.3648L35.1968 14.91Z" fill="black"/>
<path d="M34.4405 37.632H33.4745V22.008C33.3905 22.008 33.3065 22.008 33.2225 22.008H33.1805C32.8865 22.008 32.5925 21.882 32.3405 21.714C32.1305 21.882 31.8365 22.008 31.5425 22.008H31.4165C31.3325 22.008 31.2485 22.008 31.1645 22.008V37.632H30.1985C29.4845 37.632 28.9385 38.22 28.9385 38.892V39.228C28.9385 39.396 29.1065 39.564 29.2745 39.564H35.3645C35.5325 39.564 35.7005 39.396 35.7005 39.228V38.892C35.7005 38.22 35.1545 37.632 34.4405 37.632Z" fill="black"/>
<path d="M24.4023 24.066C24.4023 24.066 23.5203 23.604 22.8483 23.226C22.1763 22.848 20.5803 21.798 20.5803 21.798L20.0763 18.816C19.9923 18.186 19.4043 17.808 18.7743 17.892C18.1443 17.976 17.7663 18.564 17.8503 19.194L18.4383 22.638C18.4803 22.932 18.6903 23.226 18.9423 23.394L21.0423 24.738L20.3703 30.072L17.3043 31.668C17.0103 31.794 16.8003 32.046 16.7163 32.34L15.2463 36.162C14.9943 36.834 15.3303 37.548 15.9603 37.8C16.1283 37.842 16.2543 37.884 16.4223 37.884C16.9263 37.884 17.4303 37.59 17.5983 37.044L18.9003 33.642L20.2443 32.928L20.0343 33.978C19.9923 34.146 19.9923 34.314 20.0343 34.482L20.7483 38.388C20.8743 39.018 21.3783 39.438 22.0083 39.438C22.0923 39.438 22.1763 39.438 22.2183 39.438C22.9323 39.312 23.3943 38.64 23.2683 37.968L22.5963 34.272L23.1003 31.752C23.6463 31.458 24.1503 30.912 24.3603 29.946C24.7383 28.224 25.0743 25.326 25.0743 25.2C25.1583 24.822 24.8643 24.318 24.4023 24.066Z" fill="black"/>
<path d="M24.9481 18.0601C23.6461 17.6401 22.2181 18.3541 21.7981 19.6561C21.3781 20.9581 22.0921 22.3861 23.3941 22.8061C24.6961 23.2261 26.1241 22.5121 26.5441 21.2101C26.9641 19.8661 26.2501 18.4801 24.9481 18.0601Z" fill="black"/>
<path d="M16.9265 13.9861C17.7245 13.6501 18.6485 13.9021 19.1525 14.6161C19.4045 14.9941 19.5305 15.4141 19.4885 15.7921C19.5725 15.7921 19.6565 15.7921 19.6985 15.7501C21.0005 15.4981 21.8405 14.2381 21.5885 12.9361C21.3365 11.6341 20.0765 10.7941 18.7745 11.0461C17.4725 11.2981 16.6325 12.5581 16.8845 13.8601C16.8845 13.9441 16.9265 13.9441 16.9265 13.9861Z" fill="black"/>
<path d="M18.2703 16.6321C18.7743 16.2961 18.9003 15.5821 18.5643 15.0781C18.2283 14.5741 17.5143 14.4481 17.0103 14.7841L14.4903 16.5481L9.74429 17.2201C9.36629 17.2621 8.98829 17.4721 8.82029 17.8081C8.31629 18.6061 7.68629 21.0001 7.26629 22.8481C7.09829 23.6041 7.18229 24.1921 7.43429 24.6541L5.67029 26.5021L2.22629 26.7541C1.51229 26.7961 1.00829 27.4261 1.05029 28.1401C1.09229 28.8121 1.68029 29.3161 2.31029 29.3161C2.35229 29.3161 2.39429 29.3161 2.39429 29.3161L6.30029 29.0221C6.59429 28.9801 6.88829 28.8541 7.14029 28.6441L8.61029 27.1321L8.82029 28.7701L7.14029 32.2141C6.84629 32.8441 7.09829 33.6001 7.72829 33.9361C7.89629 34.0201 8.10629 34.0621 8.27429 34.0621C8.73629 34.0621 9.19829 33.8101 9.40829 33.3481L11.2563 29.5681C11.3823 29.3581 11.4243 29.1061 11.3823 28.8541L10.9203 24.6541L13.1883 19.0261L15.0783 18.7321C15.2463 18.6901 15.4143 18.6481 15.5403 18.5221L18.2703 16.6321Z" fill="black"/>
<path d="M10.8367 16.422C12.2227 16.59 13.5247 15.624 13.6927 14.238C13.8607 12.852 12.8947 11.55 11.5087 11.382C10.1227 11.214 8.82072 12.18 8.65272 13.566C8.44272 14.952 9.45072 16.212 10.8367 16.422Z" fill="black"/>
</svg>
