<svg width="42" height="42" viewBox="0 0 42 42" fill="none" xmlns="http://www.w3.org/2000/svg">
<path fill-rule="evenodd" clip-rule="evenodd" d="M20.9995 40.6875C15.4048 36.1401 9.64684 37.6915 3.70996 39.8016C3.70996 32.9578 3.70996 26.1139 3.70996 19.2701C4.61602 19.0225 5.51815 18.8444 6.41634 18.7346V36.883C11.424 34.7729 16.2806 36.1401 20.9995 40.6875ZM20.996 12.8822C21.8566 12.9014 22.7171 12.705 22.7171 12.2364C22.7171 11.9993 22.7066 11.7736 22.7093 11.5574H19.2823C19.2854 11.7736 19.2745 11.9993 19.2745 12.2364C19.2749 12.705 20.1355 12.9014 20.996 12.8822ZM20.4894 8.45819C20.4894 8.17819 20.7165 7.95156 20.996 7.95156C21.2756 7.95156 21.5026 8.17863 21.5026 8.45819V10.5359H20.489L20.4894 8.45819ZM21.7052 10.5319L22.7145 10.5398C22.7171 10.2804 22.7395 10.0599 22.8077 9.86869C22.869 9.69719 22.9744 9.53925 23.1481 9.38175C23.5068 9.05669 23.7864 8.66469 23.9666 8.23463C24.1456 7.80806 24.23 7.34125 24.202 6.86263C24.1508 5.98763 23.7881 5.21806 23.2146 4.66769C22.6445 4.12081 21.8723 3.79225 20.9956 3.79225C20.1188 3.79225 19.3466 4.12081 18.7766 4.66769C18.2035 5.21762 17.8412 5.98719 17.7891 6.86263C17.7611 7.34125 17.8456 7.80806 18.0245 8.23463C18.2048 8.66469 18.4843 9.05713 18.8431 9.38175C19.0268 9.548 19.1323 9.716 19.1913 9.89056C19.2565 10.0822 19.2736 10.2961 19.2766 10.5271L20.286 10.5153C20.282 10.1876 20.2545 9.87569 20.1495 9.56594C20.0383 9.23912 19.8471 8.92981 19.5199 8.63362C19.2758 8.41269 19.0841 8.14231 18.9586 7.84263C18.837 7.55344 18.7796 7.23975 18.798 6.92169V6.9195C18.8339 6.307 19.0833 5.77325 19.4766 5.39525C19.8607 5.02644 20.3888 4.80463 20.9951 4.80463C21.6011 4.80463 22.1291 5.026 22.5137 5.39525C22.907 5.77281 23.1564 6.30744 23.1923 6.92125C23.2111 7.23931 23.1533 7.55256 23.0321 7.84219C22.9066 8.14144 22.715 8.41225 22.4708 8.63319C22.1611 8.91362 21.9695 9.20588 21.8531 9.53181C21.7446 9.8385 21.7091 10.1631 21.7052 10.5319ZM20.3704 1.93812C20.3704 1.5925 20.6504 1.3125 20.996 1.3125C21.3416 1.3125 21.6216 1.5925 21.6216 1.93812V2.31525C21.6216 2.66087 21.3416 2.94088 20.996 2.94088C20.6504 2.94088 20.3704 2.66087 20.3704 2.31525V1.93812ZM23.9793 2.91463C24.2235 2.6705 24.6198 2.6705 24.864 2.91463C25.1081 3.15875 25.1081 3.55512 24.864 3.79925L24.5971 4.06569C24.353 4.30981 23.9566 4.30981 23.7125 4.06569C23.4683 3.82156 23.4683 3.42519 23.7125 3.18106L23.9793 2.91463ZM25.8405 6.15694C26.1861 6.15694 26.4661 6.43694 26.4661 6.78256C26.4661 7.12819 26.1861 7.40819 25.8405 7.40819H25.4633C25.1177 7.40819 24.8377 7.12819 24.8377 6.78256C24.8377 6.43694 25.1177 6.15694 25.4633 6.15694H25.8405ZM16.1511 7.40819C15.8055 7.40819 15.5255 7.12819 15.5255 6.78256C15.5255 6.43694 15.8055 6.15694 16.1511 6.15694H16.5283C16.8739 6.15694 17.1539 6.43694 17.1539 6.78256C17.1539 7.12819 16.8739 7.40819 16.5283 7.40819H16.1511ZM17.1281 3.79925C16.884 3.55512 16.884 3.15875 17.1281 2.91463C17.3722 2.6705 17.7686 2.6705 18.0127 2.91463L18.2791 3.18106C18.5233 3.42519 18.5233 3.82156 18.2791 4.06569C18.035 4.30981 17.6386 4.30981 17.3945 4.06569L17.1281 3.79925ZM7.96946 15.6787C7.7004 15.7469 7.5009 15.9906 7.5009 16.2807L7.50177 34.6426C7.50221 34.7235 7.5184 34.8057 7.55209 34.8854C7.68596 35.2004 8.04996 35.3469 8.36496 35.2131C10.4431 34.3262 12.4862 34.1692 14.4965 34.7108C16.5375 35.2607 18.5605 36.5308 20.5673 38.4891C20.807 38.7227 21.1903 38.724 21.4313 38.4895C23.4377 36.5312 25.4616 35.2607 27.5025 34.7108C29.4997 34.1727 31.5301 34.3245 33.5947 35.1969C33.6791 35.2402 33.775 35.2642 33.8765 35.2642C34.2195 35.2642 34.4977 34.986 34.4977 34.643L34.4973 16.2811C34.4968 16.0199 34.3301 15.7767 34.0685 15.6914C31.7406 14.9275 29.4455 14.8645 27.1827 15.4726C27.0401 15.5111 26.8975 15.5522 26.7548 15.596L27.737 16.6114C29.5509 16.1661 31.3901 16.2024 33.2556 16.7387V33.7413C31.2073 33.0417 29.183 32.9735 27.1827 33.5125C25.0823 34.0782 23.0216 35.3137 21 37.1906C18.9778 35.3137 16.9176 34.0782 14.8172 33.5125C12.8165 32.9735 10.7922 33.0417 8.74427 33.7413V16.7383C10.6019 16.2041 12.4333 16.1661 14.2397 16.6053L15.274 15.6047C15.1221 15.5579 14.9699 15.5138 14.8176 15.4726C12.5663 14.868 10.2843 14.9271 7.96946 15.6787ZM21.0455 19.6906C19.505 19.6652 18.2354 20.8937 18.21 22.4341C18.1846 23.9746 19.4131 25.2442 20.9536 25.2696C22.494 25.2949 23.7636 24.0664 23.789 22.526C23.8144 20.9856 22.5859 19.7159 21.0455 19.6906ZM22.3794 16.9282L22.305 14.8199L19.7872 14.7783L19.6245 16.9273C19.0627 17.066 18.5333 17.2882 18.0503 17.5796L16.506 16.1407L14.6965 17.8916L16.1008 19.5265C15.8095 20.0086 15.5868 20.538 15.4476 21.1002L13.3389 21.1746L13.2973 23.6924L15.4463 23.8551C15.585 24.4169 15.8073 24.9463 16.0982 25.4293L14.6593 26.9736L16.4106 28.7831L18.0455 27.3783C18.5276 27.6697 19.057 27.8924 19.6192 28.0315L19.6936 30.1402L22.2114 30.1818L22.3741 28.0328C22.9359 27.8941 23.4653 27.6719 23.9483 27.3809L25.4926 28.8199L27.3021 27.0686L25.8973 25.4336C26.1887 24.9515 26.4114 24.4221 26.5505 23.8599L28.6593 23.7856L28.7008 21.2677L26.5523 21.105C26.4136 20.5433 26.1913 20.0139 25.9 19.5309L27.3389 17.9869L25.588 16.1774L23.9531 17.5818C23.471 17.29 22.942 17.0677 22.3794 16.9282ZM35.5827 18.7346V36.883C30.5751 34.7729 25.7184 36.1401 20.9995 40.6875C26.5943 36.1401 32.3522 37.6915 38.2891 39.8016C38.2891 32.9578 38.2891 26.1139 38.2891 19.2701C37.3826 19.0225 36.4809 18.8444 35.5827 18.7346Z" fill="black"/>
</svg>
